<svg width="32" height="40" viewBox="0 0 32 40" fill="none" xmlns="http://www.w3.org/2000/svg">
<path fill-rule="evenodd" clip-rule="evenodd" d="M9.875 10C9.875 6.61726 12.6173 3.875 16 3.875C19.3827 3.875 22.125 6.61726 22.125 10V18.125H9.875V10ZM16 0.125C10.5462 0.125 6.125 4.54619 6.125 10V18.5937H2C1.22335 18.5937 0.59375 19.2233 0.59375 20V35C0.59375 37.4335 2.5665 39.4062 5 39.4062H27C29.4335 39.4062 31.4062 37.4335 31.4062 35V20C31.4062 19.2233 30.7766 18.5937 30 18.5937H25.875V10C25.875 4.54619 21.4538 0.125 16 0.125ZM16 23.9999C17.6568 23.9999 19 25.3431 19 26.9999C19 28.1642 18.3368 29.1736 17.3675 29.6708C17.3928 29.7764 17.4062 29.8866 17.4062 30V34C17.4062 34.7766 16.7766 35.4062 16 35.4062C15.2233 35.4062 14.5937 34.7766 14.5937 34V30C14.5937 29.8866 14.6072 29.7764 14.6325 29.6708C13.6632 29.1736 13 28.1642 13 26.9999C13 25.3431 14.3431 23.9999 16 23.9999Z" fill="black"/>
</svg>
