<svg width="39" height="39" viewBox="0 0 39 39" fill="none" xmlns="http://www.w3.org/2000/svg">
<path fill-rule="evenodd" clip-rule="evenodd" d="M1.5 0.09375C0.72335 0.09375 0.09375 0.72335 0.09375 1.5C0.09375 2.27665 0.72335 2.90625 1.5 2.90625H5.40203L6.13574 5.84107L9.71628 20.1632C7.65666 20.533 6.09375 22.334 6.09375 24.5C6.09375 26.9335 8.06649 28.9062 10.5 28.9062H33.5C34.2766 28.9062 34.9062 28.2766 34.9062 27.5C34.9062 26.7233 34.2766 26.0937 33.5 26.0937H10.5C9.6198 26.0937 8.90625 25.3802 8.90625 24.5C8.90625 23.6198 9.6198 22.9062 10.5 22.9062H11.5H33.5C34.1453 22.9062 34.7078 22.4671 34.8643 21.8411L38.8643 5.84107C38.9693 5.42096 38.8749 4.9759 38.6084 4.63458C38.3419 4.29326 37.933 4.09375 37.5 4.09375H8.59797L7.86426 1.15893C7.70776 0.532918 7.14528 0.09375 6.5 0.09375H1.5ZM11.5 32.0937C9.61878 32.0937 8.09375 33.6188 8.09375 35.5C8.09375 37.3812 9.61878 38.9062 11.5 38.9062C13.3812 38.9062 14.9062 37.3812 14.9062 35.5C14.9062 33.6188 13.3812 32.0937 11.5 32.0937ZM31.5 32.0937C29.6188 32.0937 28.0937 33.6188 28.0937 35.5C28.0937 37.3812 29.6188 38.9062 31.5 38.9062C33.3812 38.9062 34.9062 37.3812 34.9062 35.5C34.9062 33.6188 33.3812 32.0937 31.5 32.0937Z" fill="black"/>
</svg>
