<svg width="17" height="18" viewBox="0 0 17 18" fill="none" xmlns="http://www.w3.org/2000/svg">
<path d="M16.7344 8.99414C16.7344 13.5419 13.0477 17.2285 8.5 17.2285C3.95227 17.2285 0.265625 13.5419 0.265625 8.99414C0.265625 4.44641 3.95227 0.759766 8.5 0.759766C13.0477 0.759766 16.7344 4.44641 16.7344 8.99414ZM7.54753 13.3542L13.6569 7.2448C13.8644 7.03735 13.8644 6.70097 13.6569 6.49351L12.9056 5.74223C12.6982 5.53474 12.3618 5.53474 12.1543 5.74223L7.17188 10.7246L4.8457 8.39844C4.63824 8.19099 4.30186 8.19099 4.09438 8.39844L3.34309 9.14973C3.13564 9.35718 3.13564 9.69356 3.34309 9.90102L6.79622 13.3541C7.0037 13.5616 7.34005 13.5616 7.54753 13.3542Z" fill="#FA999D"/>
</svg>
